<?xml version="1.0" standalone="yes"?>
<svg xmlns="http://www.w3.org/2000/svg" width="500" height="500">
<path style="fill:#010101; stroke:none;" d="M0 0L0 404L56 380.344L135 359C127.449 348.836 110.479 345.87 99 341.996C77.1312 334.617 52.61 322.299 42.8758 300C34.3715 280.519 40.0463 251.433 49.2701 233C54.1858 223.176 65.6642 213.381 76.9846 220.738C89.7038 229.005 80.2987 244.405 80.0147 256C79.4043 280.914 85.3519 295.629 107 309.413C112.352 312.82 117.57 316.341 124 317C124 294.391 125.786 274.292 134 253C102.858 236.339 110.151 202.338 115.25 173C116.614 165.152 119.662 143.986 129.036 141.497C133.481 140.316 136.712 147.07 138.667 150C143.492 157.233 149.916 173.376 159.004 175.682C175.801 179.944 183.986 171.201 192.192 158C194.724 153.927 200.906 139.901 206.961 141.497C215.845 143.839 218.47 162.628 219.997 170C225.208 195.162 233.857 232.816 208 249C217.974 283.89 223.612 314.302 212 350C280.85 341.299 358.189 353.574 424 374.025C449.93 382.084 474.221 396.574 500 404L500 0L0 0z"/>
<path style="fill:#ffffff; stroke:none;" d="M327 59.4283C317.709 60.7622 308.784 63.7208 301 69.0286C250.388 103.538 279.841 187.788 342 179.711C351.262 178.507 360.117 175.573 368 170.564C421.071 136.838 389.579 50.4431 327 59.4283M134 253C123.699 272.549 124 295.56 124 317C95.4528 311.911 79.8734 285.409 80.0008 259C80.056 247.545 90.6041 227.536 76.9846 220.164C64.5007 213.407 53.2322 223.166 48.3125 234C39.7727 252.807 34.3423 281.452 42.8758 301C52.4393 322.908 76.5336 334.752 98 341.996C110.714 346.286 125.038 349.555 135 359C100.441 365.702 66.6895 375.313 34 388.4C25.6062 391.76 6.02493 396.557 1.02778 404.39C-2.67107 410.189 0 424.239 0 431L0 500L500 500L500 431C500 424.564 502.724 410.011 498.972 404.637C495.809 400.106 486.858 397.884 482 395.694C466.32 388.626 450.314 382.438 434 377C379.31 358.77 320.591 349 263 349C246.423 349 228.32 346.97 212 350C225.601 319.279 220.317 279.031 208 249C235.611 237.302 224.564 190.422 219.789 168C218.258 160.808 215.728 142.99 206.961 140.89C202.24 139.76 199.363 145.83 197.309 149C192.398 156.577 185.868 172.038 176.985 175.397C159.005 182.195 150.062 166.788 141.947 154C139.242 149.738 133.722 137.46 127.185 141.762C118.572 147.429 116.47 164.708 114.92 174C110.537 200.267 101.625 241.126 134 253z"/>
</svg>
